<svg version="1.0" xmlns="http://www.w3.org/2000/svg"
    width="100px" height="100px" viewBox="0 0 512.000000 512.000000">
   
   <g transform="translate(0.000000,512.000000) scale(0.100000,-0.100000)"
   fill="white" stroke="none">
   <path d="M2810 4924 c-288 -44 -499 -148 -687 -341 l-82 -84 -125 11 c-672 58
   -1322 -313 -1631 -929 -132 -264 -193 -583 -167 -873 15 -164 32 -250 82 -399
   184 -555 649 -976 1220 -1103 499 -111 1041 17 1423 335 l57 48 538 -433 c295
   -238 672 -542 837 -675 165 -134 323 -254 350 -267 86 -41 203 -28 282 32 42
   32 91 116 99 173 9 57 -11 140 -44 190 -31 45 -7 26 -1357 1112 -192 155 -352
   283 -354 285 -2 2 19 52 46 111 94 199 148 406 160 610 l6 103 46 26 c112 65
   261 207 339 321 270 398 260 915 -25 1298 -181 243 -455 404 -756 444 -75 11
   -204 13 -257 5z m335 -274 c386 -100 648 -439 648 -840 0 -613 -610 -1030
   -1183 -809 -158 61 -339 209 -418 342 -100 167 -137 315 -129 506 6 146 22
   211 81 336 118 249 351 428 623 480 103 19 272 13 378 -15z m-1329 -848 c0
   -147 4 -179 26 -264 127 -470 511 -796 995 -843 l71 -7 -5 -37 c-23 -149 -114
   -358 -213 -489 -486 -646 -1465 -589 -1880 110 -96 161 -140 318 -147 521 -8
   222 26 383 117 561 185 361 575 611 960 615 l75 1 1 -168z"/>
   <path d="M2874 4283 c-6 -5 -17 -34 -25 -67 -14 -56 -16 -59 -60 -76 l-47 -17
   -53 33 -54 33 -44 -43 -44 -44 32 -51 c36 -60 35 -54 15 -107 -12 -31 -23 -44
   -43 -49 -14 -3 -43 -11 -63 -16 l-38 -10 0 -59 0 -59 38 -10 c20 -5 49 -13 63
   -16 20 -5 31 -18 43 -49 20 -53 21 -47 -15 -107 l-32 -51 44 -44 44 -43 54 33
   53 33 46 -17 c46 -17 47 -19 62 -81 l16 -64 59 0 60 0 15 57 c17 65 18 66 69
   89 l39 17 56 -34 57 -34 42 40 42 39 -32 59 -32 58 17 46 c15 43 19 46 67 57
   73 17 77 21 77 81 0 59 -3 63 -75 79 -50 11 -53 14 -69 58 l-17 47 30 49 c35
   56 32 73 -16 116 l-35 30 -56 -33 -56 -34 -39 17 c-51 23 -52 24 -69 89 l-15
   57 -50 3 c-28 1 -55 -1 -61 -5z m122 -322 c137 -62 130 -253 -11 -307 -146
   -55 -280 104 -202 240 25 45 93 86 141 86 17 0 49 -9 72 -19z"/>
   </g>
   </svg>