<svg id="Layer_1" data-name="Layer 1" xmlns="http://www.w3.org/2000/svg" viewBox="0 0 900 139.52"><defs><style>.cls-1{fill:#5ea767;}.cls-2{fill:#2eb4af;}.cls-3{fill:#b51341;}.cls-4{fill:#e87953;}.cls-5{fill:#e97750;}.cls-6{fill:#5785b9;}.cls-7{fill:#e97851;}.cls-8{fill:#256a6e;}.cls-9{fill:#e87751;}.cls-10{fill:#bb508c;}.cls-11{fill:#b40f3f;}.cls-12{fill:#7c277f;}.cls-13{fill:#795342;}.cls-14{fill:#3e3a6d;}.cls-15{fill:#635f81;}.cls-16{fill:#403c6e;}.cls-17{fill:#b60b3c;}.cls-18{fill:#eb764e;}.cls-19{fill:#f8ede0;}</style></defs><path class="cls-1" d="M756,431c-6.14-2.89-12.31-5.73-18.39-8.75-.58-.29-.81-1.73-.81-2.64,0-12.94-.07-25.89,0-38.83,0-1.09.5-2.76,1.29-3.18,5.89-3.09,11.92-5.93,17.9-8.85v9.75c-3.14,1.42-6.39,2.66-9.37,4.37a5.11,5.11,0,0,0-2.27,3.63c-.19,9.1-.16,18.21,0,27.31a4.49,4.49,0,0,0,1.6,3.36c3.23,1.83,6.7,3.26,10.07,4.83Z" transform="translate(144 -325.99)"/><path class="cls-2" d="M52.5,326c-.1,5.33-.34,10.67-.17,16,0,1.1,1.36,2.58,2.47,3.17C65,350.52,75.17,355.72,85.38,361v9.71c-6-3.08-11.94-6.18-17.92-9.24-6.65-3.4-13.28-6.86-20-10.08-2.37-1.13-3.2-2.55-3.14-5.15.15-6.73,0-13.46,0-20.19Z" transform="translate(144 -325.99)"/><path class="cls-3" d="M-133.5,326c-.09,5.1-.33,10.2-.14,15.29,0,1.08,1.41,2.5,2.52,3.09,10.15,5.31,20.39,10.47,30.59,15.68,0,2.33.2,4.67.07,7,0,.61-.93,1.17-1.42,1.76-12.46-6.29-24.94-12.53-37.33-19a5.07,5.07,0,0,1-2.17-3.66c-.3-6.72-.28-13.45-.37-20.17Z" transform="translate(144 -325.99)"/><path class="cls-4" d="M-7.66,360.81,13.52,350.1c2.82-1.24,5.6-2.59,8.48-3.68,3.47-1.32,4.95-3.65,4.84-7.37-.13-4.34.1-8.7.17-13h7.5c0,6.6-.22,13.2,0,19.79.08,2.74-.74,4.26-3.21,5.47C20.11,356.73,9,362.36-2.09,367.93l-5.48,2.72C-7.61,367.36-7.63,364.09-7.66,360.81Z" transform="translate(144 -325.99)"/><path class="cls-5" d="M362.83,361.36c6.79-3.61,13.57-7.24,20.38-10.82a63.92,63.92,0,0,1,8.71-4.29c3.53-1.21,4.27-3.42,4.09-6.79-.23-4.48,0-9,0-13.46h7.5c0,7,.11,13.94-.07,20.9,0,1.34-.84,3.32-1.88,3.86-12.42,6.47-24.95,12.72-37.46,19a8.81,8.81,0,0,1-1.78.48C362.48,367.3,362.65,364.33,362.83,361.36Z" transform="translate(144 -325.99)"/><path class="cls-6" d="M362.83,361.36c-.17,3-.35,5.93-.52,8.9-5.39-2.49-10.83-4.87-16.15-7.48-7.36-3.62-14.6-7.5-22-11.08-2.2-1.07-3.13-2.32-3.09-4.82.12-7,0-13.92-.09-20.88h8.25c-.09,5.48-.27,10.95-.19,16.43a3.92,3.92,0,0,0,1.69,2.94C341.4,350.79,352.12,356.05,362.83,361.36Z" transform="translate(144 -325.99)"/><path class="cls-4" d="M85.38,370.66V361l21.88-11.12.77-.56h0l4.44-2.29h0c6.42-1.86,6.66-2.22,6.63-8.65,0-4.11.08-8.22.13-12.33h7.5c0,6.72-.23,13.45-.07,20.17.07,2.66-.91,4-3.19,5.13q-16,7.93-31.87,16.17c-1.56.81-2.77,2.31-4.49,3.79Z" transform="translate(144 -325.99)"/><path class="cls-5" d="M-101.88,368.8c.5-.58,1.39-1.15,1.42-1.76.13-2.32,0-4.66-.07-7,10.82-5.39,21.67-10.72,32.4-16.28,1.06-.55,1.85-2.55,1.93-3.93.27-4.6.17-9.23.21-13.85h7.5c0,6.74.1,13.47-.08,20.2a4.72,4.72,0,0,1-1.93,3.5q-17.88,9.26-36,18.12C-98.06,368.59-100.07,368.49-101.88,368.8Z" transform="translate(144 -325.99)"/><path class="cls-5" d="M290.59,351.67a.35.35,0,0,0,.41-.17l2.54-1.35c3.21-1.55,6.5-3,9.59-4.74a4.1,4.1,0,0,0,1.39-3.06c.11-5.44,0-10.89,0-16.34H312c0,7.36.19,14.71,0,22.06a5,5,0,0,1-2.25,3.64q-18,9.35-36.2,18.28c-.94.46-2.36-.05-3.55-.11.5-2.78,1-5.56,1.49-8.33L282,356h0Z" transform="translate(144 -325.99)"/><path class="cls-7" d="M180,361.38c9.16-4.73,18.2-9.71,27.54-14.07,4.19-1.95,6.27-4.15,5.69-9-.49-4.06-.16-8.22-.2-12.34h7.5c.07,7.24.22,14.49.12,21.73a4.31,4.31,0,0,1-1.83,3.24c-12.64,6.49-25.36,12.82-38.07,19.17a2.22,2.22,0,0,1-.74.07C180,367.27,180,364.32,180,361.38Z" transform="translate(144 -325.99)"/><path class="cls-1" d="M271.51,361.54c-.5,2.78-1,5.56-1.49,8.33-12.69-6.33-25.41-12.6-38-19.1-1-.53-1.76-2.54-1.84-3.9-.37-6.95-.47-13.92-.67-20.88h8.25c0,5.12-.27,10.25,0,15.35a6,6,0,0,0,2.63,4.25c7.92,4.2,16,8.08,24,12.06Q268,359.6,271.51,361.54Z" transform="translate(144 -325.99)"/><path class="cls-8" d="M-7.66,360.81l.06,9.83c-6.92-3.65-13.81-7.35-20.77-10.94-5.64-2.91-11.33-5.73-17-8.51a4.07,4.07,0,0,1-2.7-4.26c.18-7,.09-13.95.1-20.93h7.5c0,4.87.15,9.75,0,14.61-.09,2.59.72,4,3.13,5.16C-27.42,350.65-17.56,355.78-7.66,360.81Z" transform="translate(144 -325.99)"/><path class="cls-9" d="M453.68,361.39l21.84-11.29c3.56-1.66,7.19-3.19,10.64-5.07a4.09,4.09,0,0,0,1.39-3.07c.1-5.32,0-10.64-.05-16H495c.05,7.23.23,14.46,0,21.68a5.51,5.51,0,0,1-2.73,3.76c-5.27,2.76-10.78,5.06-16.09,7.74-6.08,3.08-12,6.41-18.08,9.57a30.39,30.39,0,0,1-3.77,1.41Q454,365.79,453.68,361.39Z" transform="translate(144 -325.99)"/><path class="cls-10" d="M180,361.38c0,2.95,0,5.89,0,8.84a15.12,15.12,0,0,1-3.13-.8c-11.66-5.9-23.27-11.92-35-17.76-2.28-1.14-3.32-2.4-3.23-5.1.22-6.84.08-13.7.09-20.55h7.5c0,4.61.33,9.25,0,13.84-.28,3.47,1.13,5.19,4,6.6C160.19,351.33,170.07,356.38,180,361.38Z" transform="translate(144 -325.99)"/><path class="cls-7" d="M545.36,359.87c10.38-5.28,20.79-10.49,31.08-15.93a5.48,5.48,0,0,0,2.53-3.8c.28-4.7.06-9.43,0-14.14h7.5c.07,6.85.22,13.71.11,20.56a4.29,4.29,0,0,1-2,3.06c-11.46,5.91-23,11.69-34.54,17.45a37.28,37.28,0,0,1-4.15,1.5Z" transform="translate(144 -325.99)"/><path class="cls-11" d="M695.25,326c.07,4.73,0,9.47.3,14.19a4.78,4.78,0,0,0,1.9,3.48c10.45,5.51,21,10.82,31.52,16.19l.06,8.74c-3.91-1.76-7.88-3.4-11.73-5.3-9-4.46-17.95-9.09-27-13.52-2-1-2.58-2.27-2.55-4.39.09-6.46,0-12.93,0-19.39Z" transform="translate(144 -325.99)"/><path class="cls-12" d="M545.36,359.87l.57,8.69a8.43,8.43,0,0,1-2.45-.39c-12.11-6.09-24.18-12.27-36.3-18.33-2-1-2.52-2.32-2.48-4.42.12-6.47.05-12.94.05-19.42h7.5c0,4.61.18,9.23,0,13.83-.09,2.35.79,3.53,2.85,4.56C525.23,349.47,535.28,354.7,545.36,359.87Z" transform="translate(144 -325.99)"/><path class="cls-13" d="M604.5,326c0,4.73-.19,9.47.11,14.18a5.56,5.56,0,0,0,2.44,3.9c10.07,5.43,20.26,10.63,30.42,15.9,0,2.89,0,5.79,0,8.68-2.48-1-5.06-1.77-7.43-3-10.18-5.18-20.27-10.54-30.45-15.7-1.89-1-2.8-2-2.74-4.22.18-6.58.09-13.17.11-19.76Z" transform="translate(144 -325.99)"/><path class="cls-14" d="M453.68,361.39c.22,2.93.45,5.85.67,8.78a11.14,11.14,0,0,1-3.12-.58c-8.2-4.16-16.35-8.42-24.52-12.65a.43.43,0,0,0-.49-.23l-1-.55-2.66-1.32-1-.48L419.18,353a.8.8,0,0,1-.63-.33l-1.92-1-1.08-.48-1.76-1-.05,0q.13-12.12.26-24.23h6.75c-.1,5.48-.36,11-.16,16.45,0,1.18,1.56,2.73,2.78,3.37C433.43,351.11,443.57,356.22,453.68,361.39Z" transform="translate(144 -325.99)"/><path class="cls-9" d="M637.5,368.66c0-2.89,0-5.79,0-8.68l18.95-10.05.19.26.1-.3.22-.11,5.29-2.81h0c1.72-.67,3.45-1.33,5.16-2,3-1.19,4.24-3.18,3.91-6.62-.39-4.07-.07-8.22-.06-12.33h7.5c0,6.49-.07,13,0,19.46,0,2.33-.87,3.52-3,4.56-11.54,5.7-23,11.59-34.49,17.37A28.32,28.32,0,0,1,637.5,368.66Z" transform="translate(144 -325.99)"/><path class="cls-9" d="M118.5,465.5c1.12-5.6-.64-9.1-6.3-11.49C102.6,450,93.38,445,84,440.44c.19-2.5.47-5,.49-7.5,0-.4-1.11-.81-1.71-1.21,1.25-.07,2.73-.62,3.7-.14q19.05,9.45,37.93,19.25c1.09.57,1.94,2.47,2.07,3.83.34,3.58.21,7.21.28,10.82Z" transform="translate(144 -325.99)"/><path class="cls-4" d="M-65.25,465.5c1.07-5.53-.46-9.14-6.18-11.56C-80.82,450-89.81,445-99,440.51c-.21-3-.41-6-.62-9,1,0,2.24-.25,3.09.18,11.76,5.9,23.42,12,35.24,17.78,3.12,1.52,4.14,3.59,4,6.7s-.31,6.2-.47,9.3Z" transform="translate(144 -325.99)"/><path class="cls-4" d="M577.5,465.5c.46-6.88.41-6.78-5.54-9.76-9.24-4.63-18.4-9.42-27.59-14.14l-.15-9.05c7.52,3.59,15.07,7.14,22.56,10.8,5.26,2.57,10.4,5.39,15.7,7.88a4.69,4.69,0,0,1,3.11,4.91c-.09,3.11.09,6.24.16,9.35Z" transform="translate(144 -325.99)"/><path class="cls-12" d="M730.39,440.09c-9.46,4.87-18.81,10-28.42,14.5-3.77,1.78-5.34,4-4.65,8a24.41,24.41,0,0,1,.18,3H690c-.09-4.11-.27-8.21-.19-12.32a3.51,3.51,0,0,1,1.59-2.57c12.87-6.61,25.81-13.11,38.73-19.62.09-.05.24,0,.37.05C730.46,434.06,730.43,437.07,730.39,440.09Z" transform="translate(144 -325.99)"/><path class="cls-11" d="M82.77,431.74c.6.4,1.72.81,1.71,1.21,0,2.5-.3,5-.49,7.5-9.33,4.78-18.56,9.76-28,14.24-3.64,1.73-5.68,3.65-4.88,7.83a13.7,13.7,0,0,1-.09,3h-7.5a70.72,70.72,0,0,0-.07-8.24c-.5-4.16,1-6.41,4.89-8.26C59.93,443.53,71.31,437.53,82.77,431.74Z" transform="translate(144 -325.99)"/><path class="cls-10" d="M361.44,441.42c-9.07,4.65-18,9.61-27.28,13.81-4.92,2.23-6.8,5.17-5.66,10.27h-8.25c.08-3.36,0-6.74.32-10.07a5,5,0,0,1,2-3.53c12.41-6.4,24.91-12.61,37.39-18.87C363,435.37,360.9,438.63,361.44,441.42Z" transform="translate(144 -325.99)"/><path class="cls-12" d="M-99.6,431.55c.21,3,.41,6,.62,9-9.44,4.85-18.8,9.87-28.37,14.46-3.48,1.67-5.42,3.55-4.68,7.54a16.56,16.56,0,0,1,0,3h-7.5c0-4.36-1.45-9.55.42-12.84s7-4.62,10.82-6.59C-118.74,441.16-109.15,436.38-99.6,431.55Z" transform="translate(144 -325.99)"/><path class="cls-6" d="M544.22,432.55l.15,9.05c-9.06,4.61-18,9.51-27.22,13.73-4.74,2.16-7.61,4.67-6.4,10.18h-7.5c-2-9.24,1.38-14.66,10.52-18.17C524.26,443.31,534.1,437.55,544.22,432.55Z" transform="translate(144 -325.99)"/><path class="cls-13" d="M-7.72,441c-10.15,5.19-20.33,10.33-30.42,15.63a4.22,4.22,0,0,0-1.6,2.93,43.76,43.76,0,0,0,0,5.95h-7.5c-.86-13.61-.83-13.56,11.19-19.59,9.59-4.81,19.12-9.74,28.67-14.61.22,2.9.45,5.79.67,8.69Z" transform="translate(144 -325.99)"/><path class="cls-14" d="M635.9,441.31c-9,4.58-17.87,9.47-27.08,13.6-5,2.24-7.67,5-6.58,10.59h-7.5a16.43,16.43,0,0,0-.06-3c-1.45-7.32,1.59-11.37,8.45-14.31,10-4.3,19.55-9.77,29.33-14.64,1-.52,2.4-.38,3.61-.55,0,1.33,0,2.65,0,4,0,.5,0,1,0,1.5s0,1,0,1.5S636,440.87,635.9,441.31Z" transform="translate(144 -325.99)"/><path class="cls-5" d="M361.44,441.42c-.54-2.79,1.54-6.05-1.52-8.38,1.94.36,4.07.3,5.77,1.14,11.19,5.48,22.25,11.24,33.46,16.69,2.77,1.35,3.94,3,3.67,6-.25,2.85-.06,5.74-.07,8.61h-7.5c1-5.58-1.81-8.24-6.69-10.45C379.35,450.89,370.46,446,361.44,441.42Z" transform="translate(144 -325.99)"/><path class="cls-5" d="M-6.72,440c-.23-2.9-.45-5.79-.67-8.69a15.49,15.49,0,0,1,3.46.84C7.66,438,19.18,444,30.81,449.7c2.76,1.36,3.91,3,3.66,6.06s0,6.49,0,9.74H27a41.44,41.44,0,0,0-.13-5.58c-.18-1.2-.65-2.88-1.53-3.36-4.87-2.64-9.91-5-14.89-7.43l-.11-.05L9.81,449l-6.17-3-5.18-2.9-.09-.05C-3.34,442.05-5,441-6.72,440Z" transform="translate(144 -325.99)"/><path class="cls-1" d="M453,442.18c-9.56,4.81-19.1,9.67-28.69,14.42-5.3,2.63-5.49,2.87-4.3,8.89h-8.25c0-3,.18-6,0-9a4.09,4.09,0,0,1,2.58-4.41c12-5.92,23.88-12,35.84-17.89a16.22,16.22,0,0,1,3.54-.86C453.49,436.3,453.24,439.24,453,442.18Z" transform="translate(144 -325.99)"/><path class="cls-5" d="M453,442.18c.24-2.94.49-5.89.73-8.83,10.27,5.1,20.28,10.82,30.89,15.09,7.87,3.17,11.24,7.69,9.62,15.93a6,6,0,0,0,0,1.12h-7.5c.64-4.76-1.5-7.23-5.91-9.23C471.38,452,462.26,446.92,453,442.18Z" transform="translate(144 -325.99)"/><path class="cls-2" d="M265.51,444.56c-9.89,5.1-19.74,10.31-29.72,15.23-2.65,1.31-3.88,2.83-3.29,5.71H225c-1.43-7,1-11.17,8-14.08,11.09-4.62,21.67-10.48,32.47-15.82Z" transform="translate(144 -325.99)"/><path class="cls-9" d="M207,465.5c.42-2.71-.72-4.22-3.25-5.44-9.73-4.71-19.34-9.68-29-14.52a9.9,9.9,0,0,0-2.06-.54q-.13-4.49-.26-9c1.24.19,2.63.07,3.7.6,11.12,5.56,22.1,11.4,33.31,16.75,3.87,1.85,6.09,3.91,5.22,8.39a23.1,23.1,0,0,0-.15,3.73Z" transform="translate(144 -325.99)"/><path class="cls-9" d="M265.51,444.56l-.06-8.95c4.92,2.26,9.9,4.41,14.76,6.79,7.49,3.66,14.84,7.64,22.39,11.16,3.28,1.53,4.91,3.44,4.35,7.11a41.06,41.06,0,0,0-.2,4.84h-7.5c.81-3.25-1.15-4.68-3.69-5.94C285.52,454.61,275.52,449.56,265.51,444.56Z" transform="translate(144 -325.99)"/><path class="cls-8" d="M172.43,436c.09,3,.17,6,.26,9-9.85,5-19.66,10.13-29.58,15-2.55,1.26-3.71,2.72-2.86,5.49H132a3.06,3.06,0,0,0,.19-1.09c-1.4-6.68,2-9.84,7.81-12.43C151,447.08,161.64,441.39,172.43,436Z" transform="translate(144 -325.99)"/><path class="cls-5" d="M636.07,437c0-1.33,0-2.65,0-4,12.82,6.14,25.68,12.21,38.42,18.53,1.28.64,2.38,2.71,2.57,4.24a80.34,80.34,0,0,1,.18,9.7h-7.5a27.39,27.39,0,0,0-.11-4.06c-.2-1.22-.42-3-1.25-3.46a81.63,81.63,0,0,0-8.31-3.88l0,0-6.19-3.46-.12-.07-2.84-1.4a.71.71,0,0,0-.62-.25L647.93,447l-2.16-1-1.5,0h0a2.9,2.9,0,0,1,0-.72c-.54-2.75-2.69-2.19-4.55-2.22h0l-3.63-3c0-.5,0-1,0-1.5l1.09-.76Z" transform="translate(144 -325.99)"/><path class="cls-9" d="M729,368.6l-.06-8.74c7.83-4,15.64-8.09,23.51-12.05A14.93,14.93,0,0,1,756,347v9c-7.73,3.81-15.45,7.65-23.21,11.42A27.4,27.4,0,0,1,729,368.6Z" transform="translate(144 -325.99)"/><path class="cls-9" d="M730.39,440.09c0-3,.07-6,.11-9q8.58,4,17.15,7.93c2.8,1.31,5.57,2.68,8.35,4v9.75Z" transform="translate(144 -325.99)"/><path class="cls-15" d="M414,326q-.13,12.12-.26,24.23a13.37,13.37,0,0,1-1.06-3.5c-.14-6.91-.14-13.82-.18-20.73Z" transform="translate(144 -325.99)"/><path class="cls-10" d="M-144,433.25l2,.43c-.2,1.33-.5,2.65-.57,4-.1,1.81-.53,3.94,2.36,4.06L-144,443Z" transform="translate(144 -325.99)"/><path class="cls-10" d="M-142.55,366.48l-1.45,0v-9l3.91,1.24c-4.29.75-1.88,4.07-2.4,6.26Z" transform="translate(144 -325.99)"/><path class="cls-16" d="M131.79,442.77a17.93,17.93,0,0,1-3.47-.95c-11.79-6-23.51-12.06-35.33-17.95-2.14-1.07-2.77-2.33-2.75-4.61.1-12.22.13-24.45,0-36.67,0-3.37.47-5.3,4.17-6.94,9.44-4.18,18.44-9.37,27.7-14a91.09,91.09,0,0,1,9.23-3.46c.16,2.65.33,5.31.49,8l-4.53,2.48a31.91,31.91,0,0,1-3.37,2.2c-7.7,3.79-15.4,7.58-23.17,11.21-2.16,1-2.77,2.37-2.74,4.65q.17,13.5,0,27a4.38,4.38,0,0,0,2.79,4.61c10.38,5.18,20.67,10.54,31,15.83C131.78,437,131.78,439.9,131.79,442.77Z" transform="translate(144 -325.99)"/><path class="cls-7" d="M131.82,366.19c-.16-2.65-.33-5.31-.49-8,1.15.13,2.44,0,3.41.44,11.91,6,23.8,11.94,35.58,18.15a5.79,5.79,0,0,1,2.6,4.23c.2,12.84.15,25.69,0,38.54,0,1.26-.8,3.15-1.79,3.66-12.69,6.61-25.48,13-38.26,19.47a2.88,2.88,0,0,1-1.11.06q0-4.3,0-8.61a38.72,38.72,0,0,1,3.7-2.44c9.07-4.66,18.2-9.21,27.23-14a4.63,4.63,0,0,0,2.27-3.2c.17-9.5.15-19,0-28.49a4.31,4.31,0,0,0-1.72-3.22c-6.82-3.59-13.76-6.95-20.67-10.39Q137.21,369.32,131.82,366.19Z" transform="translate(144 -325.99)"/><path class="cls-8" d="M496.54,444.7c-11.51-5.7-22.9-11.64-34.57-17-4.54-2.08-6.07-4.6-5.89-9.57.42-11.6.06-23.22.24-34.83,0-1.4,1-3.48,2.15-4.07,12.63-6.53,25.37-12.82,38.09-19.18,0,3.07.05,6.14.07,9.21-10,5.08-20,10.22-30.05,15.2a4.13,4.13,0,0,0-2.64,4.34c.11,9,.13,18,0,27a4.59,4.59,0,0,0,3,4.87c10,4.89,19.81,10,29.7,15C496.59,438.67,496.56,441.69,496.54,444.7Z" transform="translate(144 -325.99)"/><path class="cls-6" d="M39.19,442.68C26.33,436.31,13.45,430,.67,423.46a4.69,4.69,0,0,1-1.92-3.56q-.21-19.5,0-39A5.12,5.12,0,0,1,.92,377.1C13.58,370.61,26.36,364.33,39.1,358c.22,3,.43,5.91.65,8.86-9.88,5-19.72,10.14-29.69,15-2.59,1.26-3.7,2.69-3.6,5.66.23,7,.58,14-.08,20.92-.61,6.42,1.48,9.84,7.48,12.35,9.05,3.77,17.69,8.54,26.5,12.88C40,436.67,39.59,439.68,39.19,442.68Z" transform="translate(144 -325.99)"/><path class="cls-7" d="M315.78,359c3.71,1.63,7.48,3.13,11.11,4.93,9.13,4.52,18.17,9.23,27.3,13.75a4.51,4.51,0,0,1,2.79,4.68c-.1,12.71,0,25.43-.15,38.14,0,1.43-.95,3.56-2.1,4.16-12.35,6.45-24.83,12.67-37.29,18.91a10.8,10.8,0,0,1-2.46.6L315,435c9.92-4.93,19.75-10.05,29.8-14.69,3.44-1.59,4.51-3.78,4.49-7.18-.05-8.36-.07-16.71,0-25.07,0-2.55-1.25-3.86-3.31-4.88-3.57-1.76-7.08-3.64-10.66-5.39-6.75-3.29-13.53-6.53-20.3-9.79Q315.45,363.51,315.78,359Z" transform="translate(144 -325.99)"/><path class="cls-1" d="M-52.39,442.37c-10.6-5.27-21-11.09-31.9-15.6-7.14-2.95-9-7.2-8.54-14.42.63-10.07.07-20.22.27-30.32,0-1.53,1-3.79,2.29-4.44,11.92-6.27,24-12.27,36-18.31a17.27,17.27,0,0,1,3.17-.9,43.82,43.82,0,0,1-.14,4.59,47.21,47.21,0,0,1-1.1,4.67c-9.9,5.05-19.84,10-29.66,15.23a5.48,5.48,0,0,0-2.69,3.79c-.22,9.24-.17,18.5,0,27.74a4.38,4.38,0,0,0,1.77,3.22c3.48,1.92,7.16,3.49,10.77,5.19l.93.63,0,0,5.12,2.48.94.52,8,4,.94.48,5,3C-51.56,436.8-52,439.58-52.39,442.37Z" transform="translate(144 -325.99)"/><path class="cls-9" d="M496.62,369.27c0-3.07-.05-6.14-.07-9.21a16.61,16.61,0,0,1,3.79.86c11.81,5.88,23.57,11.88,35.37,17.77,2,1,2.95,2.16,2.93,4.57-.11,12.87,0,25.74-.11,38.61a4.67,4.67,0,0,1-1.88,3.52c-12.76,6.58-25.61,13-38.45,19.38-.43.22-1.1,0-1.66-.07l.09-9c10.91-5.44,21.84-10.83,32.68-16.4a4.25,4.25,0,0,0,1.57-3.22c.12-9,0-18,.12-26.93a4.39,4.39,0,0,0-2.85-4.6c-4.48-2.16-8.84-4.57-13.32-6.73C508.79,374.86,502.69,372.1,496.62,369.27Z" transform="translate(144 -325.99)"/><path class="cls-5" d="M687,357.46c3.81,1.77,7.66,3.47,11.42,5.34,8.8,4.38,17.54,8.9,26.37,13.22a4.39,4.39,0,0,1,2.89,4.56c-.12,12.84,0,25.69-.17,38.53,0,1.43-1,3.55-2.15,4.15-12.26,6.38-24.65,12.52-37,18.7a6.64,6.64,0,0,1-1.43.34c-2-3-2.33-5.91.09-8.82a34,34,0,0,1,3.09-2c9.18-4.66,18.42-9.21,27.53-14a5,5,0,0,0,2.26-3.55q.29-14,0-28.05a5.06,5.06,0,0,0-2.2-3.63c-5-2.85-10.05-5.5-15.19-8-5.57-2.72-11.26-5.2-16.9-7.78C686.08,363.46,686.55,360.46,687,357.46Z" transform="translate(144 -325.99)"/><path class="cls-9" d="M39.75,366.86c-.22-2.95-.43-5.91-.65-8.86l1.4-.61,6.07,3,.08.07,2.86,1.46a.69.69,0,0,0,.61.17l5.39,2.81a.64.64,0,0,0,.58.21L72,373.26l1.6.71,2.92,1.5h0c4.19,1.58,4.64,4.81,4.57,8.85-.21,12.56,0,25.12,0,37.68l-1.62,1.48-9,4.47h0l-3,1.55-.79.26-.76.46h0l-1.11.65-.2-.07-.17.13-6,3.08c-4.85,2.4-9.67,4.86-14.56,7.17a35.27,35.27,0,0,1-4.77,1.51c.4-3,.79-6,1.19-9,10.07-5.21,20.1-10.49,30.23-15.57,2.09-1,2.93-2.24,2.9-4.57-.12-8.75-.11-17.49,0-26.24a4.81,4.81,0,0,0-3-5C60.22,377.21,50,372,39.75,366.86Z" transform="translate(144 -325.99)"/><path class="cls-4" d="M589.51,359.82c4.4,1.94,8.87,3.73,13.17,5.86,8.36,4.15,16.58,8.58,25,12.69,2.34,1.15,3.32,2.45,3.29,5.1-.12,12.61-.09,25.21,0,37.82,0,2.27-.62,3.66-2.73,4.72-12.14,6.07-24.21,12.27-36.33,18.38a9.25,9.25,0,0,1-2.46.47c0-3,.07-6,.11-9l17.65-9.22.18.11.16-.13c4.58-2.21,9.22-4.31,13.68-6.73a4.72,4.72,0,0,0,2-3.46q.24-14,0-28a4.78,4.78,0,0,0-1.9-3.56c-7-3.72-14.19-7.18-21.31-10.72a.49.49,0,0,0-.53-.22l-10-5.17C589.48,365.77,589.49,362.79,589.51,359.82Z" transform="translate(144 -325.99)"/><path class="cls-9" d="M223.55,359c2.35,1,4.77,1.79,7,2.91,10.16,5,20.25,10.19,30.43,15.17,2.76,1.35,4,3,4,6.29-.2,12.22-.15,24.45,0,36.68,0,2.75-.94,4.24-3.42,5.47-11.6,5.74-23.08,11.71-34.65,17.5a17.4,17.4,0,0,1-4.13,1l.78-9c10.32-5.22,20.62-10.48,31-15.61a4.47,4.47,0,0,0,2.83-4.66q-.16-13.27,0-26.56a4.58,4.58,0,0,0-2.75-4.74c-4.35-2.12-8.68-4.31-13-6.47l-18-9.05Z" transform="translate(144 -325.99)"/><path class="cls-2" d="M589.51,359.82c0,3,0,5.95,0,8.93l-6.73,3.73h0l-.9.66v-.08c-7.91,3.92-15.85,7.79-23.7,11.84a3.89,3.89,0,0,0-1.63,2.93q-.19,14.4,0,28.82c0,.84.91,1.67,1.39,2.51h0l4.62,2.78.25.18h.31L586.49,434l.25.17h.3l2.49,1.71c0,3-.07,6-.11,9-6.94-3.35-13.92-6.62-20.82-10.06-5.79-2.89-11.45-6-17.25-8.91a3.83,3.83,0,0,1-2.54-4c.09-13.09,0-26.18.13-39.28a4.7,4.7,0,0,1,1.85-3.55c12.37-6.42,24.83-12.65,37.28-18.91A6.9,6.9,0,0,1,589.51,359.82Z" transform="translate(144 -325.99)"/><path class="cls-5" d="M-52.34,367.65a45.77,45.77,0,0,0,1.1-4.67,39,39,0,0,0,.14-4.59c5.48,2.6,11,5.13,16.44,7.81,7.3,3.6,14.6,7.21,21.75,11.07a5.5,5.5,0,0,1,2.44,4q.29,19.65,0,39.3a5.1,5.1,0,0,1-2.34,3.64q-17.83,9.39-35.88,18.39c-1,.48-2.47-.11-3.72-.2l1.26-8.36,9.06-4.56,0,0,6-2.95c5-2.37,10.1-4.64,15.06-7.14A5.22,5.22,0,0,0-17.81,414c-.23-8.87-.14-17.75-.05-26.62,0-2.11-.52-3.45-2.54-4.44-5.49-2.67-10.81-5.69-16.31-8.35C-41.84,372.15-47.12,370-52.34,367.65Z" transform="translate(144 -325.99)"/><path class="cls-12" d="M223.52,435l-.78,9c-12.34-6.23-24.67-12.49-37-18.66-2-1-2.91-2.15-2.89-4.54.13-12.84,0-25.68.14-38.52,0-1.32.87-3.28,1.92-3.83,12.58-6.58,25.27-12.94,37.94-19.35a2.22,2.22,0,0,1,.74-.08v8.95l-2.29,1.56-1.54.77-1.49.73-.71.27-2.18,1.27-1.6.81-1.39.7c-6.36,3.15-12.68,6.38-19.1,9.4a4.32,4.32,0,0,0-2.81,4.6c.12,8.85.15,17.71,0,26.56,0,2.6.76,4,3.1,5.18C203.56,424.75,213.52,429.9,223.52,435Z" transform="translate(144 -325.99)"/><path class="cls-10" d="M687,433.48c-2.42,2.92-2.07,5.86-.09,8.82a9.31,9.31,0,0,1-2.74-.47c-11.81-6-23.57-12.06-35.39-18-2.25-1.13-3.25-2.48-3.22-5.17.16-12.74,0-25.49.17-38.24a5.34,5.34,0,0,1,2.26-4c12-6.36,24.16-12.52,36.3-18.67a8.12,8.12,0,0,1,2.7-.3c-.47,3-.94,6-1.4,9-.85.51-1.67,1.06-2.55,1.51-9.21,4.73-18.45,9.38-27.59,14.23a4.65,4.65,0,0,0-2.15,3.33c-.17,9.61-.14,19.22,0,28.83a3.93,3.93,0,0,0,1.67,2.91C665.62,422.76,676.33,428.1,687,433.48Z" transform="translate(144 -325.99)"/><path class="cls-13" d="M315,435l-.06,9.2-.83-.2a.27.27,0,0,0-.35-.19c-12.08-6.23-24.19-12.4-36.19-18.79a5.39,5.39,0,0,1-2.46-3.91c-.19-13.11-.17-26.22,0-39.32a4.66,4.66,0,0,1,2-3.45c12-6.39,24.09-12.6,36.18-18.82a9.34,9.34,0,0,1,2.47-.5c-.23,3-.45,6-.68,9-9.94,5.18-19.86,10.42-29.85,15.5a4.18,4.18,0,0,0-2.64,4.34c.1,8.85.14,17.71,0,26.56-.05,2.72.73,4.26,3.24,5.51C295.63,424.81,305.31,429.94,315,435Z" transform="translate(144 -325.99)"/><path class="cls-17" d="M401.8,441.58c-11.38-5.67-22.78-11.3-34.1-17.08a3.8,3.8,0,0,1-1.66-2.87q-.17-20.25,0-40.49a4.2,4.2,0,0,1,2-3q18.12-9.37,36.41-18.44c1-.48,2.4,0,3.62,0-.29,2.73-.59,5.47-.88,8.2l-7.13,3.2c-1.58.2-3.95-1.22-4.08,2l-1.95,1-2.6,1.22-.23.07c-2.39,0-4.78.06-5.72,2.92a.45.45,0,0,1-.57.27l-2.42,1.23-.09.26-.27.05c-2.56-.35-4.79-.08-5.65,2.89l-.14.18-.21-.07c-2.67-.27-4.06,1.19-4.09,3.62-.1,9.57-.13,19.14,0,28.72.05,3.69,1.87,5.07,5.62,4.94l28.83,15.15c-.49,1.09-1.42,2.19-1.4,3.27C405.17,441.36,403.71,441.63,401.8,441.58Z" transform="translate(144 -325.99)"/><path class="cls-18" d="M-142.49,365c.53-2.19-1.89-5.51,2.4-6.26L-113.4,372c2.9,1.44,5.71,3.12,8.71,4.31,2.42,1,3,2.47,3,4.86-.09,12.62-.14,25.24,0,37.85,0,2.85-1,4.22-3.48,5.38-11,5.26-21.83,10.67-32.73,16-.77.38-1.5.86-2.24,1.29-2.9-.12-2.46-2.24-2.36-4.06.07-1.34.37-2.66.57-4l22.8-11.66c3.32-1.38,6.72-2.61,9.92-4.24.77-.39,1.19-2.11,1.2-3.22.09-9.58.1-19.17,0-28.75,0-.91-1-1.82-1.56-2.73l0,0c-.74-3.46-3.4-3.21-6-3.08l0,0-3.54-1.64-.11,0c-1.31-4.17-4.77-4.31-8.25-4.42l0,0c-.9-2.83-3-3.24-5.58-2.85l-.25,0-.18-.17c-.88-2.88-3-3.23-5.58-2.85l-.24,0-.18-.16C-140.5,367-141.49,366-142.49,365Zm28.2,11.05c-.21-.09-.46-.3-.61-.24s-.19.38-.28.59c.21.09.46.3.6.24S-114.38,376.26-114.29,376.05Z" transform="translate(144 -325.99)"/><path class="cls-7" d="M407.2,367.91c.29-2.73.59-5.47.88-8.2a7.41,7.41,0,0,1,2.53.27c9.15,4.64,18.26,9.35,27.37,14l-.08.08-4.4-.09-.9-1.14-.24.24,1.14.9c-1.9,2-1.9,2-3.95-1.23l-4.67,1.75c4.7,2.44,9.21,4.89,13.83,7.11a18.45,18.45,0,0,0,4.38,1c-.17,3-.51,6.52-.56,10.05-.09,7.48-.11,15,0,22.45,0,2.94-.4,5-3.84,5.71a11.9,11.9,0,0,0-5.44,2.87c-.9.84-.78,2.76-1.11,4.2a21.9,21.9,0,0,0,3.3.42,6.15,6.15,0,0,0,1.9-.62V424.1L444,425l0,0c0,.24,0,.48,0,.72v0l-.67.48Q426,435.1,408.65,444a5.57,5.57,0,0,1-1.45.27l0-8.81a15.87,15.87,0,0,1,2.05-1.45c9.54-4.86,19.06-9.76,28.68-14.47,2.35-1.15,3.28-2.54,3.23-5.17-.15-8.35-.23-16.72,0-25.07.1-3.27-1.11-4.94-3.89-6.31C427.19,378,417.21,372.94,407.2,367.91Z" transform="translate(144 -325.99)"/><path class="cls-19" d="M81.12,422c0-12.56-.23-25.12,0-37.68.07-4-.38-7.26-4.57-8.85,5.43.09,5.95.62,6,6.09,0,12.23,0,24.46-.06,36.68C82.42,419.5,81.57,420.75,81.12,422Z" transform="translate(144 -325.99)"/><path class="cls-7" d="M445.5,424.94l-.24.16H445l-1-.07,0,0-1.74-1.59c.68-2.12,1.67-3.8,1.7-5.49.15-9.71.07-19.43.08-29.15,0-1.26.13-2.51.2-3.77l1.3,0v37.72C445.5,423.48,445.5,424.21,445.5,424.94Z" transform="translate(144 -325.99)"/><path class="cls-4" d="M445.5,424.94c0-.73,0-1.46,0-2.2,1.79-.68,3.1-1.34,3.06-3.87-.18-12-.05-24-.15-36,0-1-.93-1.95-1.43-2.92v-1.41c.7,1.09,2,2.18,2,3.28.13,13,0,25.93.08,38.89C449.1,423.32,448.15,424.79,445.5,424.94Z" transform="translate(144 -325.99)"/><path class="cls-7" d="M438,374l6,3.06,0,1.42h0c-2.93-.57-6.59,1.5-8.8-2.05l2.7-2.37Z" transform="translate(144 -325.99)"/><path class="cls-3" d="M407.16,435.42l0,8.81-5.38-2.64c1.91,0,3.37-.22,3.3-2.78,0-1.08.9-2.18,1.4-3.27A1.3,1.3,0,0,1,407.16,435.42Z" transform="translate(144 -325.99)"/><path class="cls-7" d="M447,378.58V380l-3-1.48h0l2.5-.09A.43.43,0,0,1,447,378.58Z" transform="translate(144 -325.99)"/><path class="cls-4" d="M446.51,378.41l-2.5.09,0-1.42Z" transform="translate(144 -325.99)"/><path class="cls-15" d="M426.22,356.71a.43.43,0,0,1,.49.23l-.32.05Z" transform="translate(144 -325.99)"/><path class="cls-4" d="M444,425l1,.07-1,.64C444,425.5,444,425.26,444,425Z" transform="translate(144 -325.99)"/><path class="cls-7" d="M313.81,443.8a.27.27,0,0,1,.35.19l-.27.08Z" transform="translate(144 -325.99)"/><path class="cls-4" d="M-109.63,383.08c.54.91,1.55,1.81,1.56,2.73q.16,14.37,0,28.75c0,1.11-.44,2.83-1.2,3.22-3.19,1.63-6.59,2.86-9.92,4.24,2.59-1.45,5.24-2.8,7.73-4.41.9-.59,2-1.8,2-2.73C-109.4,404.28-109.54,393.68-109.63,383.08Z" transform="translate(144 -325.99)"/><path class="cls-4" d="M-127.44,374c3.48.11,6.94.25,8.25,4.42Z" transform="translate(144 -325.99)"/><path class="cls-4" d="M-115.57,380.05c2.59-.13,5.24-.39,6,3.08Z" transform="translate(144 -325.99)"/><path class="cls-4" d="M-139.08,368.11c2.54-.38,4.7,0,5.58,2.85Z" transform="translate(144 -325.99)"/><path class="cls-4" d="M-133.06,371.11c2.55-.4,4.68,0,5.58,2.85Z" transform="translate(144 -325.99)"/><path class="cls-4" d="M-142.49,365l3,3-3.05-1.5Z" transform="translate(144 -325.99)"/><path class="cls-4" d="M639.74,443l-2.26-.6a.56.56,0,0,0-.57-.29l-.89-.43a1,1,0,0,1-.11-.42c.07-.43.13-.87.2-1.3Z" transform="translate(144 -325.99)"/><path class="cls-4" d="M636.07,437l1.11.74-1.09.76C636.08,438,636.08,437.5,636.07,437Z" transform="translate(144 -325.99)"/><path class="cls-4" d="M644.26,445.25,639.71,443C641.58,443.06,643.73,442.5,644.26,445.25Z" transform="translate(144 -325.99)"/><path class="cls-3" d="M376.14,383.11c-2.23.82-2.62,2.51-2.6,4.7.09,8.21.23,16.43-.07,24.63-.14,3.73.51,6.5,4.2,7.95-3.75.13-5.57-1.25-5.62-4.94-.13-9.57-.1-19.14,0-28.72C372.08,384.3,373.47,382.84,376.14,383.11Z" transform="translate(144 -325.99)"/><path class="cls-3" d="M391.21,375.39l-5.72,2.92C386.44,375.45,388.82,375.42,391.21,375.39Z" transform="translate(144 -325.99)"/><path class="cls-3" d="M382.14,380.11,376.49,383C377.35,380,379.59,379.76,382.14,380.11Z" transform="translate(144 -325.99)"/><path class="cls-3" d="M400.07,371.1l-4.08,2C396.12,369.88,398.49,371.31,400.07,371.1Z" transform="translate(144 -325.99)"/><path class="cls-4" d="M-114.29,376.05c-.09.21-.14.53-.29.59s-.4-.15-.6-.24c.09-.21.14-.53.28-.59S-114.5,376-114.29,376.05Z" transform="translate(144 -325.99)"/><path class="cls-18" d="M444,378.51l3,1.48c.5,1,1.42,1.94,1.43,2.92.1,12,0,24,.15,36,0,2.53-1.28,3.19-3.06,3.87V385l-1.3,0c-.07,1.26-.2,2.51-.2,3.77,0,9.72.07,19.43-.08,29.15,0,1.69-1,3.37-1.7,5.49L444,425l-6.63-.87v3.59a6.24,6.24,0,0,1-1.9.62,23.27,23.27,0,0,1-3.3-.42c.34-1.44.22-3.36,1.11-4.2a11.9,11.9,0,0,1,5.44-2.87c3.44-.7,3.89-2.78,3.84-5.71-.12-7.48-.1-15,0-22.45,0-3.53.38-7.05.56-10.05a18.45,18.45,0,0,1-4.38-1c-4.62-2.22-9.12-4.67-13.83-7.11l4.67-1.75c2.06,3.2,2.06,3.2,3.95,1.23h0l4.4.09-2.7,2.37C437.4,380,441.06,377.93,444,378.51Z" transform="translate(144 -325.99)"/><path class="cls-18" d="M433.5,374l-1.14-.9.24-.24.9,1.14Z" transform="translate(144 -325.99)"/></svg>